<svg xmlns="http://www.w3.org/2000/svg" width="20" height="20" fill="inherit" viewBox="0 0 20 20"><ellipse cx="3.409" cy="10.818" fill="inherit" rx="1.569" ry="1.555"/><ellipse cx="5.737" cy="13.659" fill="inherit" rx="1.569" ry="1.555"/><ellipse cx="8.249" cy="16.304" fill="inherit" rx="1.569" ry="1.555"/><ellipse fill="inherit" rx="1.556" ry="1.569" transform="matrix(-0.207912 -0.978148 0.978963 -0.204037 14.6072 3.98819)"/><ellipse fill="inherit" rx="1.556" ry="1.569" transform="matrix(-0.207912 -0.978148 0.979044 -0.203648 12.748 6.9672)"/><ellipse fill="inherit" rx="1.556" ry="1.569" transform="matrix(-0.207912 -0.978148 0.978921 -0.204241 10.8888 10.0122)"/><rect width="7.975" height="1.465" y="7.437" fill="inherit" rx=".733"/><rect width="11.861" height="1.465" y="18.416" fill="inherit" rx=".733"/><rect width="12.266" height="1.465" y="19.881" fill="inherit" rx=".733" transform="rotate(-90 0 19.8815)"/><rect width="11.971" height="1.465" fill="inherit" rx=".733" transform="matrix(-0.207912 -0.978148 0.97896 -0.204052 8.15373 14.2984)"/><rect width="12.14" height="1.466" fill="inherit" rx=".733" transform="matrix(-0.207912 -0.978148 0.97896 -0.204052 18.3103 12.0582)"/><rect width="11.614" height="1.465" fill="inherit" rx=".733" transform="matrix(0.975142 -0.221579 0.225438 0.974257 7.97467 12.946)"/><rect width="11.63" height="1.465" fill="inherit" rx=".733" transform="matrix(0.97309 -0.230424 0.23442 0.972135 5.73689 2.56398)"/><rect width="7.158" height="1.465" fill="inherit" rx=".733" transform="matrix(-0.00144208 0.999999 -0.999999 -0.00141611 11.8705 12.7264)"/></svg>