<svg xmlns="http://www.w3.org/2000/svg" id="cvx" viewBox="0 0 32 32"><defs><linearGradient id="evpaint0_linear" x1="22.895" x2="4.045" y1="5.098" y2="34.55" gradientTransform="matrix(0.630801, 0, 0, 0.630801, 4.645676, 3.26105)" gradientUnits="userSpaceOnUse"><stop stop-color="#1682FE"/><stop offset=".3" stop-color="#60D8A4"/><stop offset=".7" stop-color="#FCA75B"/><stop offset="1" stop-color="#FF5A5A"/></linearGradient></defs><circle style="fill:#fff" cx="16" cy="16" r="16"/><path fill="url(#evpaint0_linear)" d="M 25.188 13.502 L 25.188 8.502 L 22.688 8.502 L 22.688 6.002 L 17.689 6.002 L 17.689 3.502 L 12.689 3.502 L 12.689 6.002 L 7.689 6.002 L 7.689 8.502 L 5.189 8.502 L 5.189 23.501 L 7.689 23.501 L 7.689 26.001 L 12.689 26.001 L 12.689 28.5 L 17.688 28.5 L 17.688 26.001 L 22.688 26.001 L 22.688 23.501 L 25.188 23.501 L 25.188 18.501 L 20.189 18.501 L 20.189 21.001 L 17.689 21.001 L 17.689 23.501 L 12.689 23.501 L 12.689 21.001 L 10.191 21.001 L 10.191 11.002 L 12.691 11.002 L 12.691 8.502 L 17.69 8.502 L 17.69 11.002 L 20.19 11.002 L 20.19 13.502 L 25.188 13.502 Z"/><rect width="1.741" height="2.625" x="17.689" y="8.376" fill="#1682FE"/><rect width="1.741" height="2.625" x="12.685" y="3.5" fill="#1682FE"/><rect width="1.741" height="2.625" x="7.687" y="6" fill="#60D8A4"/><rect width="1.759" height="7.499" x="5.186" y="16" fill="#F4BB3B"/><rect width="1.759" height="7.499" x="5.186" y="8.502" fill="#60D8A4"/><rect width="1.741" height="2.625" x="20.187" y="10.875" fill="#1682FE"/><rect width="1.741" height="2.625" x="20.186" y="18.5" fill="#FF5A5A"/><rect width="1.741" height="2.625" x="17.689" y="21" fill="#FF5A5A"/><rect width="1.741" height="2.625" x="12.686" y="25.874" fill="#FF5A5A"/><rect width="1.741" height="2.625" x="7.686" y="23.375" fill="#F4BB3B"/><path fill="#3A3A3A" d="M 26.814 13.5 L 26.814 8.5 L 24.313 8.5 L 24.313 6 L 19.314 6 L 19.314 3.5 L 14.314 3.5 L 14.314 6 L 9.314 6 L 9.314 8.5 L 6.813 8.5 L 6.813 23.5 L 9.313 23.5 L 9.313 26 L 14.312 26 L 14.312 28.499 L 19.312 28.499 L 19.312 26 L 24.313 26 L 24.313 23.5 L 26.814 23.5 L 26.814 18.5 L 21.814 18.5 L 21.814 21 L 19.314 21 L 19.314 23.5 L 14.314 23.5 L 14.314 21 L 11.814 21 L 11.814 11 L 14.314 11 L 14.314 8.5 L 19.314 8.5 L 19.314 11 L 21.814 11 L 21.814 13.5 L 26.814 13.5 Z"/></svg>